<?xml version="1.0" standalone="no"?>
<!DOCTYPE svg PUBLIC "-//W3C//DTD SVG 1.1//EN"
  "http://www.w3.org/Graphics/SVG/1.1/DTD/svg11.dtd">
<svg width="77mm" height="80.99999999999997mm" viewBox="-101 -100.99999999999997 77 80.99999999999997" xmlns="http://www.w3.org/2000/svg" version="1.1">
	<title>svgOutput</title>
	<desc>made with tinkercad</desc>
<path d="M -29.5 -92.99999999999999 L -29.5 -90.4980010986328 L -29.489999771118164 -90.4980010986328 L -29.489999771118164 -92.99999999999999 L -26.99799919128418 -92.99999999999999 L -26.99799919128418 -93.01000213623045 L -29.489999771118164 -93.01000213623045 L -29.489999771118164 -95.50299835205077 L -29.5 -95.50299835205077 L -29.5 -93.01000213623045 L -32.00199890136719 -93.01000213623045 L -32.00199890136719 -92.99999999999999 L -29.5 -92.99999999999999 M -29.5 -42.99999999999999 L -29.5 -40.498001098632805 L -29.489999771118164 -40.498001098632805 L -29.489999771118164 -42.99999999999999 L -26.99799919128418 -42.99999999999999 L -26.99799919128418 -43.009998321533196 L -29.489999771118164 -43.009998321533196 L -29.489999771118164 -45.502998352050774 L -29.5 -45.502998352050774 L -29.5 -43.009998321533196 L -32.00199890136719 -43.009998321533196 L -32.00199890136719 -42.99999999999999 L -29.5 -42.99999999999999 M -87.5 -93.01000213623045 L -90.00299835205078 -93.01000213623045 L -90.00299835205078 -92.99999999999999 L -87.5 -92.99999999999999 L -87.5 -90.4980010986328 L -87.48999786376953 -90.4980010986328 L -87.48999786376953 -92.99999999999999 L -84.99800109863281 -92.99999999999999 L -84.99800109863281 -93.01000213623045 L -87.48999786376953 -93.01000213623045 L -87.48999786376953 -95.50299835205077 L -87.5 -95.50299835205077 L -87.5 -93.01000213623045 M -87.5 -44.009998321533196 L -90.00299835205078 -44.009998321533196 L -90.00299835205078 -43.99999999999999 L -87.5 -43.99999999999999 L -87.5 -41.498001098632805 L -87.48999786376953 -41.498001098632805 L -87.48999786376953 -43.99999999999999 L -84.99800109863281 -43.99999999999999 L -84.99800109863281 -44.009998321533196 L -87.48999786376953 -44.009998321533196 L -87.48999786376953 -46.502998352050774 L -87.5 -46.502998352050774 L -87.5 -44.009998321533196 M -100 -20.999999999999996 L -100 -90.4980010986328 L -100 -95.50299835205077 L -100 -99.99999999999997 L -32.00199890136719 -99.99999999999997 L -26.99799919128418 -99.99999999999997 L -25 -99.99999999999997 L -25 -20.999999999999996 L -26.99799919128418 -20.999999999999996 L -32.00199890136719 -20.999999999999996 L -84.99800109863281 -20.999999999999996 L -90.00299835205078 -20.999999999999996 L -100 -20.999999999999996 M -84.00299835205078 -95.50299835205077 L -84.00299835205078 -90.4980010986328 L -32.99800109863281 -90.4980010986328 L -32.99800109863281 -95.50299835205077 L -84.00299835205078 -95.50299835205077 z" fill="none" stroke="rgb(0,0,0)" stroke-width="0.01mm" />
</svg>