<?xml version="1.0" encoding="UTF-8" standalone="no"?>
<svg
   width="297mm"
   height="210mm"
   viewBox="-93.5 -95.5 297 210"
   version="1.1"
   id="svg111"
   sodipodi:docname="InkyWhats.Diagram.svg"
   inkscape:version="1.1.1 (3bf5ae0d25, 2021-09-20)"
   xmlns:inkscape="http://www.inkscape.org/namespaces/inkscape"
   xmlns:sodipodi="http://sodipodi.sourceforge.net/DTD/sodipodi-0.dtd"
   xmlns="http://www.w3.org/2000/svg"
   xmlns:svg="http://www.w3.org/2000/svg"
   xmlns:rdf="http://www.w3.org/1999/02/22-rdf-syntax-ns#"
   xmlns:cc="http://creativecommons.org/ns#"
   xmlns:dc="http://purl.org/dc/elements/1.1/">
  <defs
     id="defs115" />
  <sodipodi:namedview
     id="namedview113"
     pagecolor="#ffffff"
     bordercolor="#666666"
     borderopacity="1.0"
     inkscape:pageshadow="2"
     inkscape:pageopacity="0.0"
     inkscape:pagecheckerboard="0"
     inkscape:document-units="mm"
     showgrid="false"
     inkscape:zoom="0.36547666"
     inkscape:cx="500.71597"
     inkscape:cy="-157.32879"
     inkscape:window-width="1271"
     inkscape:window-height="1081"
     inkscape:window-x="874"
     inkscape:window-y="118"
     inkscape:window-maximized="0"
     inkscape:current-layer="svg111" />
  <title
     id="title105">svgOutput</title>
  <desc
     id="desc107">made with tinkercad</desc>
  <path
     d="m -2.7073334,-34.384334 0.004,-0.002 0.004,0.002 0.002,0.002 0.002,0.004 -0.002,0.004 -0.002,0.002 -0.004,0.002 -0.004,-0.002 -0.002,-0.002 -0.002,-0.004 0.002,-0.004 0.002,-0.002 m 2.99943777,0.014 0.00156,-0.013 -0.04374,-0.363998 -0.04326,-0.360001 -0.2560001,-0.681999 -0.4119997,-0.600003 -0.54100027,-0.482997 -0.6409998,-0.339001 -0.7029978,-0.175 h -0.7240005 l -0.7029991,0.174999 -0.6410007,0.339001 -0.5409997,0.482997 -0.412,0.600003 -0.256,0.681999 -0.04376,0.360001 -0.04424,0.363998 0.088,0.723999 0.256,0.681999 0.412,0.600003 0.5409997,0.482997 0.6410007,0.339001 0.7029991,0.174 h 0.3590002 0.3650003 l 0.7030001,-0.174 0.6409998,-0.339001 0.54100027,-0.482997 0.4119997,-0.600003 0.2560001,-0.681999 0.085438,-0.710999 m -2.99943777,-49.513999 0.004,-0.002 0.004,0.002 0.002,0.002 0.002,0.004 -0.002,0.004 -0.002,0.002 -0.004,0.002 -0.004,-0.002 -0.002,-0.002 -0.002,-0.004 0.002,-0.004 0.002,-0.002 m 2.99943777,0.014 0.00156,-0.013 -0.00192,-0.016 -0.085077,-0.708 -0.2560001,-0.681999 -0.4119997,-0.599999 -0.54100027,-0.483001 -0.6409998,-0.339005 -0.7030011,-0.174995 h -0.7240005 l -0.7029991,0.174995 -0.6410007,0.339005 -0.5409997,0.483001 -0.412,0.599999 -0.256,0.681999 -0.08606,0.708 -0.0019,0.016 0.088,0.723999 0.256,0.681999 0.412,0.599999 0.5409997,0.483001 0.6410007,0.339005 0.7029991,0.173996 h 0.3589602 0.3650003 l 0.7030001,-0.173996 0.6409998,-0.339005 0.54100027,-0.483001 0.4119997,-0.599999 0.2560001,-0.682 0.085438,-0.710999 m 3.49956203,-8.513 v 61.001999 15.998001 h -9.503 -56.9999977 -1 -23.497002 v -2.997999 -8.005001 -65.997 h 23.497002 1 5.004997 1 50.9950007 6.00499987 3.49800013 m -63.4990007,57.999001 0.004,-0.002 0.004,0.002 0.002,0.002 0.002,0.004 -0.002,0.004 -0.002,0.002 -0.004,0.002 -0.004,-0.002 -0.002,-0.002 -0.002,-0.004 0.002,-0.004 0.002,-0.002 m 2.99944,0.014 0.0016,-0.013 -0.04374,-0.363998 -0.04326,-0.360001 -0.256001,-0.681999 -0.411998,-0.600003 -0.541001,-0.482997 -0.641002,-0.339001 -0.702999,-0.174999 h -0.724 l -0.703002,0.174999 -0.640999,0.339001 -0.541001,0.482997 -0.411995,0.600003 -0.256004,0.681999 -0.04375,0.360001 -0.04424,0.363998 0.088,0.723999 0.256004,0.681999 0.411995,0.600003 0.541001,0.482997 0.640999,0.339001 0.703002,0.174 h 0.359002 0.364998 l 0.702999,-0.174 0.641002,-0.339001 0.541001,-0.482997 0.411998,-0.600003 0.256001,-0.681999 0.08544,-0.710999 m -3.99944,-49.513999 0.004,-0.002 0.004,0.002 0.002,0.002 0.002,0.004 -0.002,0.004 -0.002,0.002 -0.004,0.002 -0.004,-0.002 -0.002,-0.002 -0.002,-0.004 0.002,-0.004 0.002,-0.002 m 2.99944,0.014 0.0016,-0.013 -0.0019,-0.016 -0.08508,-0.708 -0.256001,-0.681999 -0.411998,-0.599999 -0.541001,-0.483001 -0.640999,-0.339005 -0.703002,-0.174995 h -0.724 l -0.703002,0.174995 -0.640999,0.339005 -0.296997,0.265159 -0.244004,0.217842 -0.411995,0.599999 -0.256004,0.681999 -0.08605,0.708 -0.0019,0.016 0.088,0.723999 0.256004,0.681999 0.411995,0.599999 0.244004,0.217842 0.296997,0.265159 0.640999,0.339005 0.703002,0.173996 h 0.359002 0.364998 l 0.703002,-0.173996 0.640999,-0.339005 0.541001,-0.483001 0.411998,-0.599999 0.256001,-0.681999 0.08544,-0.710999 m 0.496563,-2.515998 v 5.004997 h 0.504997 50.5000007 v -5.004997 h -50.5000007 -0.504997 m 0.005,59.999998 h -5.504997 -1 -19.5 v 8.005001 h 19.5 1 5.504997 z"
     fill="none"
     stroke="#ff0000"
     stroke-width="0.1mm"
     id="path109" />
  <path
     d="m 92.219645,-34.44344 0.004,-0.002 0.004,0.002 0.002,0.002 0.002,0.004 -0.002,0.004 -0.002,0.002 -0.004,0.002 -0.004,-0.002 -0.002,-0.002 -0.002,-0.004 0.002,-0.004 0.002,-0.002 m 2.999438,0.014 0.0016,-0.013 -0.04374,-0.363998 -0.04326,-0.360001 -0.256,-0.681999 -0.412,-0.600003 -0.541,-0.482998 -0.641,-0.339001 -0.702998,-0.175 h -0.724 l -0.703,0.174999 -0.641,0.339001 -0.541,0.482998 -0.412,0.600003 -0.256,0.681999 -0.04376,0.360001 -0.04424,0.363998 0.088,0.723999 0.256,0.681999 0.412,0.600003 0.541,0.482996 0.641,0.339001 0.703,0.174 h 0.359 0.365 l 0.703,-0.174 0.641,-0.339001 0.541,-0.482996 0.412,-0.600003 0.256,-0.681999 0.08544,-0.710999 m -2.999438,-49.514001 0.004,-0.002 0.004,0.002 0.002,0.002 0.002,0.004 -0.002,0.004 -0.002,0.002 -0.004,0.002 -0.004,-0.002 -0.002,-0.002 -0.002,-0.004 0.002,-0.004 0.002,-0.002 m 2.999438,0.014 0.0016,-0.013 -0.0019,-0.016 -0.08508,-0.708 -0.256,-0.681999 -0.412,-0.599999 -0.541,-0.483001 -0.641,-0.339005 -0.703001,-0.174995 h -0.724 l -0.703,0.174995 -0.641,0.339005 -0.541,0.483001 -0.412,0.599999 -0.256,0.681999 -0.08606,0.708 -0.0019,0.016 0.088,0.723999 0.256,0.681999 0.412,0.599999 0.541,0.483001 0.641,0.339005 0.702999,0.173996 h 0.358961 0.365 l 0.703,-0.173996 0.641,-0.339005 0.541,-0.483001 0.412,-0.599999 0.256,-0.682 0.08544,-0.710999 m 3.499562,-8.513 v 61.002 15.998001 h -9.503 -56.999999 -1 -23.4970022 v -2.997998 -8.005002 -65.997001 h 23.4970022 1 5.004997 1 50.995002 6.005 3.498 m -63.499002,57.999003 0.004,-0.002 0.004,0.002 0.002,0.002 0.002,0.004 -0.002,0.004 -0.002,0.002 -0.004,0.002 -0.004,-0.002 -0.002,-0.002 -0.002,-0.004 0.002,-0.004 0.002,-0.002 m 2.99944,0.014 0.0016,-0.013 -0.04384,-0.363998 -0.04326,-0.360001 -0.256002,-0.681999 -0.411998,-0.600003 -0.541001,-0.482998 -0.641002,-0.339001 -0.702999,-0.174999 h -0.724 l -0.703002,0.174999 -0.640999,0.339001 -0.541001,0.482998 -0.411995,0.600003 -0.256004,0.681999 -0.04375,0.360001 -0.04424,0.363998 0.088,0.723999 0.256004,0.681999 0.411995,0.600003 0.541001,0.482996 0.640999,0.339001 0.703002,0.174 h 0.359002 0.364998 l 0.702999,-0.174 0.641002,-0.339001 0.541001,-0.482996 0.411998,-0.600003 0.256001,-0.681999 0.08544,-0.710999 m -3.99944,-49.514001 0.004,-0.002 0.004,0.002 0.002,0.002 0.002,0.004 -0.002,0.004 -0.002,0.002 -0.004,0.002 -0.004,-0.002 -0.002,-0.002 -0.002,-0.004 0.002,-0.004 0.002,-0.002 m 2.99944,0.014 0.0016,-0.013 -0.0019,-0.016 -0.08508,-0.708 -0.256001,-0.681999 -0.411998,-0.599999 -0.541001,-0.483001 -0.640999,-0.339005 -0.703002,-0.174995 h -0.724 l -0.703002,0.174995 -0.640999,0.339005 -0.296997,0.265159 -0.244004,0.217842 -0.411995,0.599999 -0.256004,0.681999 -0.08605,0.708 -0.0019,0.016 0.088,0.723999 0.256004,0.681999 0.411995,0.599999 0.244004,0.217842 0.296997,0.265159 0.640999,0.339005 0.703002,0.173996 h 0.359002 0.364998 l 0.703002,-0.173996 0.640999,-0.339005 0.541001,-0.483001 0.411998,-0.599999 0.256001,-0.681999 0.08544,-0.710999 m 0.496563,-2.515998 v 5.004997 h 0.504997 50.500002 v -5.004997 H 38.220803 37.715806 m 0.005,59.999999 h -5.504997 -1 -19.500001 v 8.005002 h 19.500001 1 5.504997 z"
     fill="none"
     stroke="#ff0000"
     stroke-width="0.1mm"
     id="path109-8" />
  <path
     d="m 188.39854,-34.155537 0.004,-0.002 0.004,0.002 0.002,0.002 0.002,0.004 -0.002,0.004 -0.002,0.002 -0.004,0.002 -0.004,-0.002 -0.002,-0.002 -0.002,-0.004 0.002,-0.004 0.002,-0.002 m 2.99944,0.014 0.002,-0.013 -0.0437,-0.363998 -0.0433,-0.360001 -0.256,-0.681999 -0.412,-0.600003 -0.541,-0.482998 -0.641,-0.339001 -0.703,-0.175 h -0.724 l -0.703,0.174999 -0.641,0.339001 -0.541,0.482998 -0.412,0.600003 -0.256,0.681999 -0.0438,0.360001 -0.0442,0.363998 0.088,0.723999 0.256,0.681999 0.412,0.600003 0.541,0.482996 0.641,0.339001 0.703,0.174 h 0.359 0.365 l 0.703,-0.174 0.641,-0.339001 0.541,-0.482996 0.412,-0.600003 0.256,-0.681999 0.0854,-0.710999 m -2.99944,-49.514001 0.004,-0.002 0.004,0.002 0.002,0.002 0.002,0.004 -0.002,0.004 -0.002,0.002 -0.004,0.002 -0.004,-0.002 -0.002,-0.002 -0.002,-0.004 0.002,-0.004 0.002,-0.002 m 2.99944,0.014 0.002,-0.013 -0.002,-0.016 -0.0851,-0.708 -0.256,-0.681999 -0.412,-0.599999 -0.541,-0.483001 -0.641,-0.339005 -0.703,-0.174995 h -0.724 l -0.703,0.174995 -0.641,0.339005 -0.541,0.483001 -0.412,0.599999 -0.256,0.681999 -0.0861,0.708 -0.002,0.016 0.088,0.723999 0.256,0.681999 0.412,0.599999 0.541,0.483001 0.641,0.339005 0.703,0.173996 h 0.35896 0.365 l 0.703,-0.173996 0.641,-0.339005 0.541,-0.483001 0.412,-0.599999 0.256,-0.682 0.0854,-0.710999 m 3.49956,-8.513 v 61.002 15.998002 h -9.503 -57.00002 -1 -23.49702 v -2.997998 -8.005003 -65.997001 h 23.49702 1 5.005 1 50.99502 6.005 3.498 m -63.49902,57.999003 0.004,-0.002 0.004,0.002 0.002,0.002 0.002,0.004 -0.002,0.004 -0.002,0.002 -0.004,0.002 -0.004,-0.002 -0.002,-0.002 -0.002,-0.004 0.002,-0.004 0.002,-0.002 m 2.99944,0.014 0.002,-0.013 -0.0438,-0.363998 -0.0433,-0.360001 -0.256,-0.681999 -0.412,-0.600003 -0.541,-0.482998 -0.641,-0.339001 -0.703,-0.174999 h -0.724 l -0.70301,0.174999 -0.641,0.339001 -0.541,0.482998 -0.41199,0.600003 -0.25601,0.681999 -0.0438,0.360001 -0.0442,0.363998 0.088,0.723999 0.25601,0.681999 0.41199,0.600003 0.541,0.482996 0.641,0.339001 0.70301,0.174 h 0.359 0.365 l 0.703,-0.174 0.641,-0.339001 0.541,-0.482996 0.412,-0.600003 0.256,-0.681999 0.0854,-0.710999 m -3.99944,-49.514001 0.004,-0.002 0.004,0.002 0.002,0.002 0.002,0.004 -0.002,0.004 -0.002,0.002 -0.004,0.002 -0.004,-0.002 -0.002,-0.002 -0.002,-0.004 0.002,-0.004 0.002,-0.002 m 2.99944,0.014 0.002,-0.013 -0.002,-0.016 -0.0851,-0.708 -0.256,-0.681999 -0.412,-0.599999 -0.541,-0.483001 -0.641,-0.339005 -0.703,-0.174995 h -0.72401 l -0.703,0.174995 -0.641,0.339005 -0.29699,0.265159 -0.24401,0.217842 -0.41199,0.599999 -0.25601,0.681999 -0.0861,0.708 -0.002,0.016 0.088,0.723999 0.25601,0.681999 0.41199,0.599999 0.24401,0.217842 0.29699,0.265159 0.641,0.339005 0.703,0.173996 h 0.35901 0.365 l 0.703,-0.173996 0.641,-0.339005 0.541,-0.483001 0.412,-0.599999 0.256,-0.681999 0.0854,-0.710999 m 0.49656,-2.515998 v 5.004997 h 0.505 50.50002 v -5.004997 h -50.50048 -0.505 m 0.005,59.999999 h -5.505 -1 -19.50001 v 8.005003 h 19.50001 1 5.505 z"
     fill="none"
     stroke="#ff0000"
     stroke-width="0.1mm"
     id="path109-8-3" />
  <path
     d="m -2.5754491,52.947949 0.004,-0.002 0.004,0.002 0.002,0.002 0.002,0.004 -0.002,0.004 -0.002,0.002 -0.004,0.002 -0.004,-0.002 -0.002,-0.002 -0.002,-0.004 0.002,-0.004 0.002,-0.002 m 2.99942673,0.014 0.002,-0.013 -0.0437,-0.363998 -0.0433,-0.360001 -0.256,-0.681999 -0.412,-0.600003 -0.5409967,-0.482997 -0.64100003,-0.339001 -0.70299,-0.175 h -0.724 l -0.703,0.174999 -0.641,0.339001 -0.5409999,0.482997 -0.412,0.600003 -0.256,0.681999 -0.0438,0.360001 -0.0442,0.363998 0.088,0.723999 0.256,0.681999 0.412,0.600003 0.5409999,0.482997 0.641,0.339001 0.703,0.174 h 0.359 0.365 l 0.703,-0.174 0.64100003,-0.339001 0.5409967,-0.482997 0.412,-0.600003 0.256,-0.681999 0.0854,-0.710999 M -2.5750391,3.4479481 l 0.004,-0.002 0.004,0.002 0.002,0.002 0.002,0.004 -0.002,0.004 -0.002,0.002 -0.004,0.002 -0.004,-0.002 -0.002,-0.002 -0.002,-0.004 0.002,-0.004 0.002,-0.002 m 2.99942673,0.014 0.002,-0.013 -0.002,-0.016 -0.0851,-0.708 -0.256,-0.681999 -0.412,-0.599999 -0.5409967,-0.48300103 -0.64100003,-0.339005 -0.703,-0.1749947 h -0.724 l -0.703,0.1749947 -0.641,0.339005 -0.5409999,0.48300103 -0.412,0.599999 -0.256,0.681999 -0.0861,0.708 -0.002,0.016 0.088,0.723999 0.256,0.6819989 0.412,0.599999 0.5409999,0.4830007 0.641,0.339005 0.703,0.1739961 h 0.35896 0.365 l 0.703,-0.1739961 0.64100003,-0.339005 0.5409967,-0.4830007 0.412,-0.599999 0.256,-0.6819999 0.0854,-0.710999 M 3.9241176,-5.0510523 V 55.950947 71.948948 H -5.578879 -62.578849 -63.57885 -87.075851 V 68.950949 60.945948 -5.0510523 h 23.497001 1.000001 5.005001 1 50.994969 6.00499663 3.49799997 m -63.4989696,57.9990013 0.004,-0.002 0.004,0.002 0.002,0.002 0.002,0.004 -0.002,0.004 -0.002,0.002 -0.004,0.002 -0.004,-0.002 -0.002,-0.002 -0.002,-0.004 0.002,-0.004 0.002,-0.002 m 2.999444,0.014 0.002,-0.013 -0.0437,-0.363998 -0.0433,-0.360001 -0.256,-0.681999 -0.412,-0.600003 -0.541001,-0.482997 -0.64101,-0.339001 -0.702994,-0.174999 h -0.724 l -0.703002,0.174999 -0.640999,0.339001 -0.541001,0.482997 -0.411995,0.600003 -0.256004,0.681999 -0.04375,0.360001 -0.04424,0.363998 0.088,0.723999 0.256004,0.681999 0.411995,0.600003 0.541001,0.482997 0.640999,0.339001 0.703002,0.174 h 0.359002 0.364998 l 0.702994,-0.174 0.64101,-0.339001 0.541001,-0.482997 0.412,-0.600003 0.256,-0.681999 0.0854,-0.710999 m -3.999444,-49.5139999 0.004,-0.002 0.004,0.002 0.002,0.002 0.002,0.004 -0.002,0.004 -0.002,0.002 -0.004,0.002 -0.004,-0.002 -0.002,-0.002 -0.002,-0.004 0.002,-0.004 0.002,-0.002 m 2.999444,0.014 0.002,-0.013 -0.002,-0.016 -0.0851,-0.708 -0.256,-0.681999 -0.412,-0.599999 -0.541003,-0.48300103 -0.640999,-0.339005 -0.703002,-0.1749947 h -0.724 l -0.703002,0.1749947 -0.640999,0.339005 -0.296997,0.26515903 -0.244004,0.217842 -0.411996,0.599999 -0.256004,0.681999 -0.08605,0.708 -0.0019,0.016 0.088,0.723999 0.256004,0.6819989 0.411996,0.599999 0.244004,0.217842 0.296997,0.2651587 0.640999,0.339005 0.703002,0.1739961 h 0.359002 0.364998 l 0.703002,-0.1739961 0.640999,-0.339005 0.541003,-0.4830007 0.412,-0.599999 0.256,-0.6819989 0.0854,-0.710999 m 0.49656,-2.51599803 V 5.9509477 h 0.505 50.4999723 V 0.94595107 h -50.4999723 -0.505 m 0.005,59.99999893 h -5.504998 -1.000001 -19.499999 v 8.005001 h 19.499999 1.000001 5.504998 z"
     fill="none"
     stroke="#ff0000"
     stroke-width="0.1mm"
     id="path109-5" />
  <path
     d="m 92.351466,52.888843 0.004,-0.002 0.004,0.002 0.002,0.002 0.002,0.004 -0.002,0.004 -0.002,0.002 -0.004,0.002 -0.004,-0.002 -0.002,-0.002 -0.002,-0.004 0.002,-0.004 0.002,-0.002 m 2.999437,0.014 0.002,-0.013 -0.0437,-0.363998 -0.0433,-0.360001 -0.256,-0.681999 -0.411997,-0.600003 -0.541,-0.482998 -0.641,-0.339001 -0.703,-0.175 h -0.724 l -0.703,0.174999 -0.641,0.339001 -0.541,0.482998 -0.412,0.600003 -0.256,0.681999 -0.0438,0.360001 -0.0442,0.363998 0.088,0.723999 0.256,0.681999 0.412,0.600003 0.541,0.482996 0.641,0.339001 0.703,0.174 h 0.359 0.365 l 0.703,-0.174 0.641,-0.339001 0.541,-0.482996 0.411997,-0.600003 0.256,-0.681999 0.0854,-0.710999 m -2.999427,-49.5140019 0.004,-0.002 0.004,0.002 0.002,0.002 0.002,0.004 -0.002,0.004 -0.002,0.002 -0.004,0.002 -0.004,-0.002 -0.002,-0.002 -0.002,-0.004 0.002,-0.004 0.002,-0.002 m 2.999427,0.014 0.002,-0.013 -0.002,-0.016 -0.0851,-0.708 -0.256,-0.681999 -0.411997,-0.599999 -0.541,-0.48300103 -0.641,-0.3390047 -0.703,-0.174995 h -0.724 l -0.703,0.174995 -0.641,0.3390047 -0.541,0.48300103 -0.412,0.599999 -0.256,0.681999 -0.0861,0.708 -0.002,0.016 0.088,0.723999 0.256,0.6819989 0.412,0.599999 0.541,0.4830007 0.641,0.339005 0.703,0.1739961 h 0.35896 0.365 l 0.703,-0.1739961 0.641,-0.339005 0.541,-0.4830007 0.411997,-0.599999 0.256,-0.6819999 0.0854,-0.710999 m 3.49957,-8.5129994 V 55.89184 71.889841 h -9.502994 -56.99997 -1 H 7.8510743 V 68.891843 60.886841 -5.1101603 h 23.4969947 1 5.004987 1 50.994983 6.004994 3.498 m -63.498974,57.9990033 0.004,-0.002 0.004,0.002 0.002,0.002 0.002,0.004 -0.002,0.004 -0.002,0.002 -0.004,0.002 -0.004,-0.002 -0.002,-0.002 -0.002,-0.004 0.002,-0.004 0.002,-0.002 m 2.999437,0.014 0.002,-0.013 -0.0438,-0.363998 -0.0433,-0.360001 -0.256,-0.681999 -0.412,-0.600003 -0.541,-0.482998 -0.640997,-0.339001 -0.703,-0.174999 h -0.724 l -0.703,0.174999 -0.641,0.339001 -0.541,0.482998 -0.412,0.600003 -0.256,0.681999 -0.0437,0.360001 -0.0442,0.363998 0.088,0.723999 0.256,0.681999 0.412,0.600003 0.541,0.482996 0.641,0.339001 0.703,0.174 h 0.359 0.365 l 0.703,-0.174 0.640997,-0.339001 0.541,-0.482996 0.412,-0.600003 0.256,-0.681999 0.0854,-0.710999 m -3.999437,-49.5140019 0.004,-0.002 0.004,0.002 0.002,0.002 0.002,0.004 -0.002,0.004 -0.002,0.002 -0.004,0.002 -0.004,-0.002 -0.002,-0.002 -0.002,-0.004 0.002,-0.004 0.002,-0.002 m 2.999437,0.014 0.002,-0.013 -0.002,-0.016 -0.0851,-0.708 -0.256,-0.681999 -0.412,-0.599999 -0.540997,-0.48300103 -0.641,-0.3390047 -0.703,-0.174995 h -0.724 l -0.703,0.174995 -0.641,0.3390047 -0.297,0.26515903 -0.244,0.217842 -0.412,0.599999 -0.256,0.681999 -0.0861,0.708 -0.002,0.016 0.088,0.723999 0.256,0.6819989 0.412,0.599999 0.244,0.217842 0.297,0.2651587 0.641,0.339005 0.703,0.1739961 h 0.359 0.365 l 0.703,-0.1739961 0.641,-0.339005 0.540997,-0.4830007 0.412,-0.599999 0.256,-0.6819989 0.0854,-0.710999 m 0.49657,-2.51599803 V 5.8918397 h 0.50499 50.499973 V 0.88684307 h -50.499973 -0.50499 m 0.005,59.99999993 h -5.504997 -1 -19.499988 v 8.005002 h 19.499988 1 5.504997 z"
     fill="none"
     stroke="#ff0000"
     stroke-width="0.1mm"
     id="path109-8-32" />
  <path
     d="m 188.53036,53.176746 0.004,-0.002 0.004,0.002 0.002,0.002 0.002,0.004 -0.002,0.004 -0.002,0.002 -0.004,0.002 -0.004,-0.002 -0.002,-0.002 -0.002,-0.004 0.002,-0.004 0.002,-0.002 m 2.99944,0.014 0.002,-0.013 -0.0437,-0.363998 -0.0433,-0.360001 -0.256,-0.681999 -0.412,-0.600003 -0.541,-0.482998 -0.641,-0.339001 -0.703,-0.175 h -0.724 l -0.703,0.174999 -0.641,0.339001 -0.541,0.482998 -0.412,0.600003 -0.256,0.681999 -0.0438,0.360001 -0.0442,0.363998 0.088,0.723999 0.256,0.681999 0.412,0.600003 0.541,0.482996 0.641,0.339001 0.703,0.174 h 0.359 0.365 l 0.703,-0.174 0.641,-0.339001 0.541,-0.482996 0.412,-0.600003 0.256,-0.681999 0.0854,-0.710999 m -2.99944,-49.5140019 0.004,-0.002 0.004,0.002 0.002,0.002 0.002,0.004 -0.002,0.004 -0.002,0.002 -0.004,0.002 -0.004,-0.002 -0.002,-0.002 -0.002,-0.004 0.002,-0.004 0.002,-0.002 m 2.99944,0.014 0.002,-0.013 -0.002,-0.016 -0.0851,-0.708 -0.256,-0.681999 -0.412,-0.599999 -0.541,-0.483001 -0.641,-0.33900503 -0.703,-0.174995 h -0.724 l -0.703,0.174995 -0.641,0.33900503 -0.541,0.483001 -0.412,0.599999 -0.256,0.681999 -0.0861,0.708 -0.002,0.016 0.088,0.7239989 0.256,0.681999 0.412,0.599999 0.541,0.4830007 0.641,0.3390051 0.703,0.173996 h 0.35896 0.365 l 0.703,-0.173996 0.641,-0.3390051 0.541,-0.4830007 0.412,-0.599999 0.256,-0.682 0.0854,-0.7109989 m 3.49956,-8.5129994 V 56.179743 72.177745 h -9.503 -57.00002 -1 -23.49702 V 69.179747 61.174744 -4.8222573 h 23.49702 1 5.005 1 50.99502 6.005 3.498 m -63.49902,57.9990033 0.004,-0.002 0.004,0.002 0.002,0.002 0.002,0.004 -0.002,0.004 -0.002,0.002 -0.004,0.002 -0.004,-0.002 -0.002,-0.002 -0.002,-0.004 0.002,-0.004 0.002,-0.002 m 2.99944,0.014 0.002,-0.013 -0.0438,-0.363998 -0.0433,-0.360001 -0.256,-0.681999 -0.412,-0.600003 -0.541,-0.482998 -0.641,-0.339001 -0.703,-0.174999 h -0.724 l -0.70301,0.174999 -0.641,0.339001 -0.541,0.482998 -0.41199,0.600003 -0.25601,0.681999 -0.0438,0.360001 -0.0442,0.363998 0.088,0.723999 0.25601,0.681999 0.41199,0.600003 0.541,0.482996 0.641,0.339001 0.70301,0.174 h 0.359 0.365 l 0.703,-0.174 0.641,-0.339001 0.541,-0.482996 0.412,-0.600003 0.256,-0.681999 0.0854,-0.710999 m -3.99944,-49.5140019 0.004,-0.002 0.004,0.002 0.002,0.002 0.002,0.004 -0.002,0.004 -0.002,0.002 -0.004,0.002 -0.004,-0.002 -0.002,-0.002 -0.002,-0.004 0.002,-0.004 0.002,-0.002 m 2.99944,0.014 0.002,-0.013 -0.002,-0.016 -0.0851,-0.708 -0.256,-0.681999 -0.412,-0.599999 -0.541,-0.483001 -0.641,-0.33900503 -0.703,-0.174995 h -0.72401 l -0.703,0.174995 -0.641,0.33900503 -0.29699,0.265159 -0.24401,0.217842 -0.41199,0.599999 -0.25601,0.681999 -0.0861,0.708 -0.002,0.016 0.088,0.7239989 0.25601,0.681999 0.41199,0.599999 0.24401,0.2178417 0.29699,0.265159 0.641,0.3390051 0.703,0.173996 h 0.35901 0.365 l 0.703,-0.173996 0.641,-0.3390051 0.541,-0.4830007 0.412,-0.599999 0.256,-0.681999 0.0854,-0.7109989 m 0.49656,-2.515998 v 5.0049966 h 0.505 50.50002 V 1.1747461 h -50.50048 -0.505 m 0.005,59.9999999 h -5.505 -1 -19.50001 v 8.005003 h 19.50001 1 5.505 z"
     fill="none"
     stroke="#ff0000"
     stroke-width="0.1mm"
     id="path109-8-3-6" />
  <metadata
     id="metadata139">
    <rdf:RDF>
      <cc:Work
         rdf:about="">
        <dc:title>svgOutput</dc:title>
      </cc:Work>
    </rdf:RDF>
  </metadata>
</svg>
