<?xml version="1.0" standalone="no"?>
<!DOCTYPE svg PUBLIC "-//W3C//DTD SVG 1.1//EN"
  "http://www.w3.org/Graphics/SVG/1.1/DTD/svg11.dtd">
<svg width="127.5mm" height="101.49999999999997mm" viewBox="-101 -100.99999999999997 127.5 101.49999999999997" xmlns="http://www.w3.org/2000/svg" version="1.1">
	<title>svgOutput</title>
	<desc>made with tinkercad</desc>
<path d="M 25.5 -99.99999999999997 L 25.5 -87.00299835205077 L 21.99799919128418 -87.00299835205077 L 21.99799919128418 -79.9980010986328 L 25.5 -79.9980010986328 L 25.5 -66.00299835205077 L 21.99799919128418 -66.00299835205077 L 21.99799919128418 -58.9980010986328 L 25.5 -58.9980010986328 L 25.5 -45.002998352050774 L 21.99799919128418 -45.002998352050774 L 21.99799919128418 -37.998001098632805 L 25.5 -37.998001098632805 L 25.5 -24.003000259399407 L 21.99799919128418 -24.003000259399407 L 21.99799919128418 -16.997999191284176 L 25.5 -16.997999191284176 L 25.5 -0.4999999999999998 L 21.99799919128418 -0.4999999999999998 L -12.998000144958496 -0.4999999999999998 L -18.003000259399414 -0.4999999999999998 L -70.99800109863281 -0.4999999999999998 L -76.00299835205078 -0.4999999999999998 L -100 -0.4999999999999998 L -100 -3.497999906539916 L -100 -12.00300025939941 L -100 -76.4980010986328 L -100 -81.50299835205077 L -100 -99.99999999999997 L -18.003000259399414 -99.99999999999997 L -12.998000144958496 -99.99999999999997 L 21.99799919128418 -99.99999999999997 L 25.5 -99.99999999999997 M -15.5 -78.99999999999999 L -15.5 -76.4980010986328 L -15.489999771118164 -76.4980010986328 L -15.489999771118164 -78.99999999999999 L -12.998000144958496 -78.99999999999999 L -12.998000144958496 -79.01000213623045 L -15.489999771118164 -79.01000213623045 L -15.489999771118164 -81.50299835205077 L -15.5 -81.50299835205077 L -15.5 -79.01000213623045 L -18.003000259399414 -79.01000213623045 L -18.003000259399414 -78.99999999999999 L -15.5 -78.99999999999999 M -15.5 -29.999999999999993 L -15.5 -27.497999191284173 L -15.489999771118164 -27.497999191284173 L -15.489999771118164 -29.999999999999993 L -12.998000144958496 -29.999999999999993 L -12.998000144958496 -30.01000022888183 L -15.489999771118164 -30.01000022888183 L -15.489999771118164 -32.50199890136718 L -15.5 -32.50199890136718 L -15.5 -30.01000022888183 L -18.003000259399414 -30.01000022888183 L -18.003000259399414 -29.999999999999993 L -15.5 -29.999999999999993 M -73.5 -79.01000213623045 L -76.00299835205078 -79.01000213623045 L -76.00299835205078 -78.99999999999999 L -73.5 -78.99999999999999 L -73.5 -76.4980010986328 L -73.48999786376953 -76.4980010986328 L -73.48999786376953 -78.99999999999999 L -70.99800109863281 -78.99999999999999 L -70.99800109863281 -79.01000213623045 L -73.48999786376953 -79.01000213623045 L -73.48999786376953 -81.50299835205077 L -73.5 -81.50299835205077 L -73.5 -79.01000213623045 M -73.5 -30.01000022888183 L -76.00299835205078 -30.01000022888183 L -76.00299835205078 -29.999999999999993 L -73.5 -29.999999999999993 L -73.5 -27.497999191284173 L -73.48999786376953 -27.497999191284173 L -73.48999786376953 -29.999999999999993 L -70.99800109863281 -29.999999999999993 L -70.99800109863281 -30.01000022888183 L -73.48999786376953 -30.01000022888183 L -73.48999786376953 -32.50199890136718 L -73.5 -32.50199890136718 L -73.5 -30.01000022888183 M -70.00299835205078 -81.50299835205077 L -70.00299835205078 -76.4980010986328 L -18.99799919128418 -76.4980010986328 L -18.99799919128418 -81.50299835205077 L -70.00299835205078 -81.50299835205077 M -70.99800109863281 -3.497999906539916 L -69.99800109863281 -3.497999906539916 L -69.99800109863281 -12.00300025939941 L -70.99800109863281 -12.00300025939941 L -76.00299835205078 -12.00300025939941 L -96.00299835205078 -12.00300025939941 L -96.00299835205078 -3.497999906539916 L -76.00299835205078 -3.497999906539916 L -70.99800109863281 -3.497999906539916 z" fill="none" stroke="rgb(0,0,0)" stroke-width="0.01mm" />
</svg>