<?xml version="1.0" standalone="no"?>
<!DOCTYPE svg PUBLIC "-//W3C//DTD SVG 1.1//EN"
  "http://www.w3.org/Graphics/SVG/1.1/DTD/svg11.dtd">
<svg width="93mm" height="78.99999999999999mm" viewBox="-93.5 -95.49999999999999 93 78.99999999999999" xmlns="http://www.w3.org/2000/svg" version="1.1">
	<title>svgOutput</title>
	<desc>made with tinkercad</desc>
<path d="M -7.999000072479248 -36.50099945068359 L -7.994999885559082 -36.502998352050774 L -7.991000175476074 -36.50099945068359 L -7.988999843597412 -36.4990005493164 L -7.986999988555908 -36.49499893188476 L -7.988999843597412 -36.49100112915038 L -7.991000175476074 -36.48899841308593 L -7.994999885559082 -36.48699951171874 L -7.999000072479248 -36.48899841308593 L -8.00100040435791 -36.49100112915038 L -8.003000259399414 -36.49499893188476 L -8.00100040435791 -36.4990005493164 L -7.999000072479248 -36.50099945068359 M -4.9995622634887695 -36.48699951171874 L -4.998000144958496 -36.49999999999999 L -5.041740417480469 -36.86399841308593 L -5.085000038146973 -37.22399902343749 L -5.341000080108643 -37.90599822998046 L -5.752999782562256 -38.50600051879882 L -6.294000148773193 -38.98899841308593 L -6.934999942779541 -39.32799911499023 L -7.638000011444092 -39.502998352050774 L -8.362000465393066 -39.502998352050774 L -9.0649995803833 -39.32799911499023 L -9.706000328063965 -38.98899841308593 L -10.246999740600586 -38.50600051879882 L -10.659000396728516 -37.90599822998046 L -10.914999961853027 -37.22399902343749 L -10.958756446838379 -36.86399841308593 L -11.003000259399414 -36.49999999999999 L -10.914999961853027 -35.77600097656249 L -10.659000396728516 -35.094001770019524 L -10.246999740600586 -34.493999481201165 L -9.706000328063965 -34.011001586914055 L -9.0649995803833 -33.67200088500976 L -8.362000465393066 -33.498001098632805 L -8.003000259399414 -33.498001098632805 L -7.638000011444092 -33.498001098632805 L -6.934999942779541 -33.67200088500976 L -6.294000148773193 -34.011001586914055 L -5.752999782562256 -34.493999481201165 L -5.341000080108643 -35.094001770019524 L -5.085000038146973 -35.77600097656249 L -4.9995622634887695 -36.48699951171874 M -7.999000072479248 -86.00099945068358 L -7.994999885559082 -86.00299835205077 L -7.991000175476074 -86.00099945068358 L -7.988999843597412 -85.99900054931639 L -7.986999988555908 -85.99500274658202 L -7.988999843597412 -85.99099731445311 L -7.991000175476074 -85.98899841308592 L -7.994999885559082 -85.98699951171874 L -7.999000072479248 -85.98899841308592 L -8.00100040435791 -85.99099731445311 L -8.003000259399414 -85.99500274658202 L -8.00100040435791 -85.99900054931639 L -7.999000072479248 -86.00099945068358 M -4.9995622634887695 -85.98699951171874 L -4.998000144958496 -85.99999999999999 L -4.999922752380371 -86.01599884033202 L -5.085000038146973 -86.72399902343749 L -5.341000080108643 -87.40599822998045 L -5.752999782562256 -88.00599670410155 L -6.294000148773193 -88.48899841308592 L -6.934999942779541 -88.82800292968749 L -7.638000011444092 -89.00299835205077 L -8.362000465393066 -89.00299835205077 L -9.0649995803833 -88.82800292968749 L -9.706000328063965 -88.48899841308592 L -10.246999740600586 -88.00599670410155 L -10.659000396728516 -87.40599822998045 L -10.914999961853027 -86.72399902343749 L -11.001055717468262 -86.01599884033202 L -11.003000259399414 -85.99999999999999 L -10.914999961853027 -85.27600097656249 L -10.659000396728516 -84.59400177001952 L -10.246999740600586 -83.99400329589842 L -9.706000328063965 -83.51100158691405 L -9.0649995803833 -83.17199707031249 L -8.362000465393066 -82.9980010986328 L -8.003000259399414 -82.9980010986328 L -7.638000011444092 -82.9980010986328 L -6.934999942779541 -83.17199707031249 L -6.294000148773193 -83.51100158691405 L -5.752999782562256 -83.99400329589842 L -5.341000080108643 -84.59400177001952 L -5.085000038146973 -85.27600097656249 L -4.9995622634887695 -85.98699951171874 M -1.5 -94.49999999999999 L -1.5 -33.498001098632805 L -1.5 -17.499999999999996 L -11.003000259399414 -17.499999999999996 L -68.00299835205078 -17.499999999999996 L -69.00299835205078 -17.499999999999996 L -92.5 -17.499999999999996 L -92.5 -20.497999191284176 L -92.5 -28.503000259399407 L -92.5 -94.49999999999999 L -69.00299835205078 -94.49999999999999 L -68.00299835205078 -94.49999999999999 L -62.99800109863281 -94.49999999999999 L -61.99800109863281 -94.49999999999999 L -11.003000259399414 -94.49999999999999 L -4.998000144958496 -94.49999999999999 L -1.5 -94.49999999999999 M -64.9990005493164 -36.50099945068359 L -64.99500274658203 -36.502998352050774 L -64.99099731445312 -36.50099945068359 L -64.98899841308594 -36.4990005493164 L -64.98699951171875 -36.49499893188476 L -64.98899841308594 -36.49100112915038 L -64.99099731445312 -36.48899841308593 L -64.99500274658203 -36.48699951171874 L -64.9990005493164 -36.48899841308593 L -65.0009994506836 -36.49100112915038 L -65.00299835205078 -36.49499893188476 L -65.0009994506836 -36.4990005493164 L -64.9990005493164 -36.50099945068359 M -61.99956130981445 -36.48699951171874 L -61.99800109863281 -36.49999999999999 L -62.04174041748047 -36.86399841308593 L -62.084999084472656 -37.22399902343749 L -62.340999603271484 -37.90599822998046 L -62.75299835205078 -38.50600051879882 L -63.29399871826172 -38.98899841308593 L -63.935001373291016 -39.32799911499023 L -64.63800048828125 -39.502998352050774 L -65.36199951171875 -39.502998352050774 L -66.06500244140625 -39.32799911499023 L -66.70600128173828 -38.98899841308593 L -67.24700164794922 -38.50600051879882 L -67.65899658203125 -37.90599822998046 L -67.91500091552734 -37.22399902343749 L -67.95875549316406 -36.86399841308593 L -68.00299835205078 -36.49999999999999 L -67.91500091552734 -35.77600097656249 L -67.65899658203125 -35.094001770019524 L -67.24700164794922 -34.493999481201165 L -66.70600128173828 -34.011001586914055 L -66.06500244140625 -33.67200088500976 L -65.36199951171875 -33.498001098632805 L -65.00299835205078 -33.498001098632805 L -64.63800048828125 -33.498001098632805 L -63.935001373291016 -33.67200088500976 L -63.29399871826172 -34.011001586914055 L -62.75299835205078 -34.493999481201165 L -62.340999603271484 -35.094001770019524 L -62.084999084472656 -35.77600097656249 L -61.99956130981445 -36.48699951171874 M -65.9990005493164 -86.00099945068358 L -65.99500274658203 -86.00299835205077 L -65.99099731445312 -86.00099945068358 L -65.98899841308594 -85.99900054931639 L -65.98699951171875 -85.99500274658202 L -65.98899841308594 -85.99099731445311 L -65.99099731445312 -85.98899841308592 L -65.99500274658203 -85.98699951171874 L -65.9990005493164 -85.98899841308592 L -66.0009994506836 -85.99099731445311 L -66.00299835205078 -85.99500274658202 L -66.0009994506836 -85.99900054931639 L -65.9990005493164 -86.00099945068358 M -62.99956130981445 -85.98699951171874 L -62.99800109863281 -85.99999999999999 L -62.99992370605469 -86.01599884033202 L -63.084999084472656 -86.72399902343749 L -63.340999603271484 -87.40599822998045 L -63.75299835205078 -88.00599670410155 L -64.29399871826172 -88.48899841308592 L -64.93499755859375 -88.82800292968749 L -65.63800048828125 -89.00299835205077 L -66.36199951171875 -89.00299835205077 L -67.06500244140625 -88.82800292968749 L -67.70600128173828 -88.48899841308592 L -68.00299835205078 -88.22383880615233 L -68.24700164794922 -88.00599670410155 L -68.65899658203125 -87.40599822998045 L -68.91500091552734 -86.72399902343749 L -69.00105285644531 -86.01599884033202 L -69.00299835205078 -85.99999999999999 L -68.91500091552734 -85.27600097656249 L -68.65899658203125 -84.59400177001952 L -68.24700164794922 -83.99400329589842 L -68.00299835205078 -83.77616119384764 L -67.70600128173828 -83.51100158691405 L -67.06500244140625 -83.17199707031249 L -66.36199951171875 -82.9980010986328 L -66.00299835205078 -82.9980010986328 L -65.63800048828125 -82.9980010986328 L -64.93499755859375 -83.17199707031249 L -64.29399871826172 -83.51100158691405 L -63.75299835205078 -83.99400329589842 L -63.340999603271484 -84.59400177001952 L -63.084999084472656 -85.27600097656249 L -62.99956130981445 -85.98699951171874 M -62.50299835205078 -88.50299835205077 L -62.50299835205078 -83.4980010986328 L -61.99800109863281 -83.4980010986328 L -11.498000144958496 -83.4980010986328 L -11.498000144958496 -88.50299835205077 L -61.99800109863281 -88.50299835205077 L -62.50299835205078 -88.50299835205077 M -62.49800109863281 -28.503000259399407 L -68.00299835205078 -28.503000259399407 L -69.00299835205078 -28.503000259399407 L -88.50299835205078 -28.503000259399407 L -88.50299835205078 -20.497999191284176 L -69.00299835205078 -20.497999191284176 L -68.00299835205078 -20.497999191284176 L -62.49800109863281 -20.497999191284176 L -62.49800109863281 -28.503000259399407 z" fill="none" stroke="rgb(255,0,0)" stroke-width="0.1mm" />
</svg>