<?xml version="1.0" standalone="no"?>
<!DOCTYPE svg PUBLIC "-//W3C//DTD SVG 1.1//EN"
  "http://www.w3.org/Graphics/SVG/1.1/DTD/svg11.dtd">
<svg width="93mm" height="78.99999999999999mm" viewBox="-93.5 -95.49999999999999 93 78.99999999999999" xmlns="http://www.w3.org/2000/svg" version="1.1">
	<title>svgOutput</title>
	<desc>made with tinkercad</desc>
<path d="M -64.98999786376953 -36.47999954223632 L -64.49700164794922 -36.47999954223632 L -64.49700164794922 -36.49999999999999 L -64.98999786376953 -36.49999999999999 L -64.98999786376953 -36.86399841308593 L -64.98999786376953 -36.99300003051757 L -65.01000213623047 -36.99300003051757 L -65.01000213623047 -36.86399841308593 L -65.01000213623047 -36.49999999999999 L -65.50299835205078 -36.49999999999999 L -65.50299835205078 -36.47999954223632 L -65.01000213623047 -36.47999954223632 L -65.01000213623047 -35.98799896240234 L -64.98999786376953 -35.98799896240234 L -64.98999786376953 -36.47999954223632 M -66.19200134277344 -36.11299896240234 L -66.25399780273438 -36.49999999999999 L -66.19568634033203 -36.86399841308593 L -66.19200134277344 -36.88700103759765 L -66.13809204101562 -36.99300003051757 L -66.01399993896484 -37.23699951171874 L -65.73699951171875 -37.51399993896484 L -65.38700103759766 -37.69200134277343 L -65 -37.75400161743163 L -64.61299896240234 -37.69200134277343 L -64.26300048828125 -37.51399993896484 L -63.986000061035156 -37.23699951171874 L -63.861907958984375 -36.99300003051757 L -63.80799865722656 -36.88700103759765 L -63.80431365966797 -36.86399841308593 L -63.74599838256836 -36.49999999999999 L -63.80799865722656 -36.11299896240234 L -63.8715705871582 -35.98799896240234 L -63.986000061035156 -35.76300048828124 L -64.26300048828125 -35.48600006103515 L -64.61299896240234 -35.307998657226555 L -65 -35.24599838256835 L -65.38700103759766 -35.307998657226555 L -65.73699951171875 -35.48600006103515 L -66.01399993896484 -35.76300048828124 L -66.12842559814453 -35.98799896240234 L -66.19200134277344 -36.11299896240234 M -65.98999786376953 -85.98000335693358 L -65.49700164794922 -85.98000335693358 L -65.49700164794922 -85.99999999999999 L -65.98999786376953 -85.99999999999999 L -65.98999786376953 -86.01599884033202 L -65.98999786376953 -86.4929962158203 L -66.01000213623047 -86.4929962158203 L -66.01000213623047 -86.01599884033202 L -66.01000213623047 -85.99999999999999 L -66.50299835205078 -85.99999999999999 L -66.50299835205078 -85.98000335693358 L -66.01000213623047 -85.98000335693358 L -66.01000213623047 -85.48799896240233 L -65.98999786376953 -85.48799896240233 L -65.98999786376953 -85.98000335693358 M -67.19200134277344 -85.61299896240233 L -67.25399780273438 -85.99999999999999 L -67.25143432617188 -86.01599884033202 L -67.19200134277344 -86.38700103759764 L -67.13809204101562 -86.4929962158203 L -67.01399993896484 -86.73699951171874 L -66.73699951171875 -87.01399993896483 L -66.38700103759766 -87.19200134277342 L -66 -87.25399780273436 L -65.61299896240234 -87.19200134277342 L -65.26300048828125 -87.01399993896483 L -64.98600006103516 -86.73699951171874 L -64.86190795898438 -86.4929962158203 L -64.80799865722656 -86.38700103759764 L -64.74856567382812 -86.01599884033202 L -64.74600219726562 -85.99999999999999 L -64.80799865722656 -85.61299896240233 L -64.87157440185547 -85.48799896240233 L -64.98600006103516 -85.26300048828124 L -65.26300048828125 -84.98600006103514 L -65.61299896240234 -84.80799865722655 L -66 -84.74600219726561 L -66.38700103759766 -84.80799865722655 L -66.73699951171875 -84.98600006103514 L -67.01399993896484 -85.26300048828124 L -67.12842559814453 -85.48799896240233 L -67.19200134277344 -85.61299896240233 M -7.989999771118164 -36.47999954223632 L -7.498000144958496 -36.47999954223632 L -7.498000144958496 -36.49999999999999 L -7.989999771118164 -36.49999999999999 L -7.989999771118164 -36.86399841308593 L -7.989999771118164 -36.99300003051757 L -8.010000228881836 -36.99300003051757 L -8.010000228881836 -36.86399841308593 L -8.010000228881836 -36.49999999999999 L -8.503000259399414 -36.49999999999999 L -8.503000259399414 -36.47999954223632 L -8.010000228881836 -36.47999954223632 L -8.010000228881836 -35.98799896240234 L -7.989999771118164 -35.98799896240234 L -7.989999771118164 -36.47999954223632 M -9.192000389099121 -36.11299896240234 L -9.253999710083008 -36.49999999999999 L -9.195684432983398 -36.86399841308593 L -9.192000389099121 -36.88700103759765 L -9.138091087341309 -36.99300003051757 L -9.013999938964844 -37.23699951171874 L -8.737000465393066 -37.51399993896484 L -8.38700008392334 -37.69200134277343 L -8 -37.75400161743163 L -7.61299991607666 -37.69200134277343 L -7.263000011444092 -37.51399993896484 L -6.986000061035156 -37.23699951171874 L -6.861908435821533 -36.99300003051757 L -6.808000087738037 -36.88700103759765 L -6.804315090179443 -36.86399841308593 L -6.745999813079834 -36.49999999999999 L -6.808000087738037 -36.11299896240234 L -6.8715715408325195 -35.98799896240234 L -6.986000061035156 -35.76300048828124 L -7.263000011444092 -35.48600006103515 L -7.61299991607666 -35.307998657226555 L -8 -35.24599838256835 L -8.38700008392334 -35.307998657226555 L -8.737000465393066 -35.48600006103515 L -9.013999938964844 -35.76300048828124 L -9.12842845916748 -35.98799896240234 L -9.192000389099121 -36.11299896240234 M -7.989999771118164 -85.98000335693358 L -7.498000144958496 -85.98000335693358 L -7.498000144958496 -85.99999999999999 L -7.989999771118164 -85.99999999999999 L -7.989999771118164 -86.01599884033202 L -7.989999771118164 -86.4929962158203 L -8.010000228881836 -86.4929962158203 L -8.010000228881836 -86.01599884033202 L -8.010000228881836 -85.99999999999999 L -8.503000259399414 -85.99999999999999 L -8.503000259399414 -85.98000335693358 L -8.010000228881836 -85.98000335693358 L -8.010000228881836 -85.48799896240233 L -7.989999771118164 -85.48799896240233 L -7.989999771118164 -85.98000335693358 M -9.192000389099121 -85.61299896240233 L -9.253999710083008 -85.99999999999999 L -9.251436233520508 -86.01599884033202 L -9.192000389099121 -86.38700103759764 L -9.138091087341309 -86.4929962158203 L -9.013999938964844 -86.73699951171874 L -8.737000465393066 -87.01399993896483 L -8.38700008392334 -87.19200134277342 L -8 -87.25399780273436 L -7.61299991607666 -87.19200134277342 L -7.263000011444092 -87.01399993896483 L -6.986000061035156 -86.73699951171874 L -6.861908435821533 -86.4929962158203 L -6.808000087738037 -86.38700103759764 L -6.748563289642334 -86.01599884033202 L -6.745999813079834 -85.99999999999999 L -6.808000087738037 -85.61299896240233 L -6.8715715408325195 -85.48799896240233 L -6.986000061035156 -85.26300048828124 L -7.263000011444092 -84.98600006103514 L -7.61299991607666 -84.80799865722655 L -8 -84.74600219726561 L -8.38700008392334 -84.80799865722655 L -8.737000465393066 -84.98600006103514 L -9.013999938964844 -85.26300048828124 L -9.12842845916748 -85.48799896240233 L -9.192000389099121 -85.61299896240233 M -1.5 -94.49999999999999 L -1.5 -33.498001098632805 L -1.5 -28.503000259399407 L -1.5 -20.497999191284176 L -1.5 -17.499999999999996 L -68.00299835205078 -17.499999999999996 L -69.00299835205078 -17.499999999999996 L -92.5 -17.499999999999996 L -92.5 -20.497999191284176 L -92.5 -28.503000259399407 L -92.5 -94.49999999999999 L -69.00299835205078 -94.49999999999999 L -68.00299835205078 -94.49999999999999 L -62.99800109863281 -94.49999999999999 L -61.99800109863281 -94.49999999999999 L -11.003000259399414 -94.49999999999999 L -4.998000144958496 -94.49999999999999 L -1.5 -94.49999999999999 M -62.084999084472656 -35.77600097656249 L -61.99800109863281 -36.49999999999999 L -62.04174041748047 -36.86399841308593 L -62.084999084472656 -37.22399902343749 L -62.340999603271484 -37.90599822998046 L -62.75299835205078 -38.50600051879882 L -63.29399871826172 -38.98899841308593 L -63.74599838256836 -39.22804641723632 L -63.935001373291016 -39.32799911499023 L -64.63800048828125 -39.502998352050774 L -65.36199951171875 -39.502998352050774 L -66.06500244140625 -39.32799911499023 L -66.25399780273438 -39.22804641723632 L -66.70600128173828 -38.98899841308593 L -67.24700164794922 -38.50600051879882 L -67.65899658203125 -37.90599822998046 L -67.91500091552734 -37.22399902343749 L -67.95875549316406 -36.86399841308593 L -68.00299835205078 -36.49999999999999 L -67.91500091552734 -35.77600097656249 L -67.65899658203125 -35.094001770019524 L -67.24700164794922 -34.493999481201165 L -66.70600128173828 -34.011001586914055 L -66.25399780273438 -33.771953582763665 L -66.06500244140625 -33.67200088500976 L -65.36199951171875 -33.498001098632805 L -64.63800048828125 -33.498001098632805 L -63.935001373291016 -33.67200088500976 L -63.29399871826172 -34.011001586914055 L -62.75299835205078 -34.493999481201165 L -62.340999603271484 -35.094001770019524 L -62.28394317626953 -35.24599838256835 L -62.084999084472656 -35.77600097656249 M -63.084999084472656 -85.27600097656249 L -62.99800109863281 -85.99999999999999 L -62.99992370605469 -86.01599884033202 L -63.084999084472656 -86.72399902343749 L -63.340999603271484 -87.40599822998045 L -63.75299835205078 -88.00599670410155 L -64.29399871826172 -88.48899841308592 L -64.74600219726562 -88.72804260253905 L -64.93499755859375 -88.82800292968749 L -65.63800048828125 -89.00299835205077 L -66.36199951171875 -89.00299835205077 L -67.06500244140625 -88.82800292968749 L -67.25399780273438 -88.72804260253905 L -67.70600128173828 -88.48899841308592 L -68.00299835205078 -88.22383880615233 L -68.24700164794922 -88.00599670410155 L -68.65899658203125 -87.40599822998045 L -68.91500091552734 -86.72399902343749 L -69.00105285644531 -86.01599884033202 L -69.00299835205078 -85.99999999999999 L -68.91500091552734 -85.27600097656249 L -68.65899658203125 -84.59400177001952 L -68.24700164794922 -83.99400329589842 L -68.00299835205078 -83.77616119384764 L -67.70600128173828 -83.51100158691405 L -67.25399780273438 -83.27195739746092 L -67.06500244140625 -83.17199707031249 L -66.36199951171875 -82.9980010986328 L -65.63800048828125 -82.9980010986328 L -64.93499755859375 -83.17199707031249 L -64.29399871826172 -83.51100158691405 L -63.75299835205078 -83.99400329589842 L -63.340999603271484 -84.59400177001952 L -63.28394317626953 -84.74600219726561 L -63.084999084472656 -85.27600097656249 M -5.085000038146973 -35.77600097656249 L -4.998000144958496 -36.49999999999999 L -5.041740417480469 -36.86399841308593 L -5.085000038146973 -37.22399902343749 L -5.341000080108643 -37.90599822998046 L -5.752999782562256 -38.50600051879882 L -6.294000148773193 -38.98899841308593 L -6.745999813079834 -39.22804641723632 L -6.934999942779541 -39.32799911499023 L -7.638000011444092 -39.502998352050774 L -8.362000465393066 -39.502998352050774 L -9.0649995803833 -39.32799911499023 L -9.253999710083008 -39.22804641723632 L -9.706000328063965 -38.98899841308593 L -10.246999740600586 -38.50600051879882 L -10.659000396728516 -37.90599822998046 L -10.914999961853027 -37.22399902343749 L -10.958756446838379 -36.86399841308593 L -11.003000259399414 -36.49999999999999 L -10.914999961853027 -35.77600097656249 L -10.659000396728516 -35.094001770019524 L -10.246999740600586 -34.493999481201165 L -9.706000328063965 -34.011001586914055 L -9.253999710083008 -33.771953582763665 L -9.0649995803833 -33.67200088500976 L -8.362000465393066 -33.498001098632805 L -7.638000011444092 -33.498001098632805 L -6.934999942779541 -33.67200088500976 L -6.294000148773193 -34.011001586914055 L -5.752999782562256 -34.493999481201165 L -5.341000080108643 -35.094001770019524 L -5.283944129943848 -35.24599838256835 L -5.085000038146973 -35.77600097656249 M -5.085000038146973 -85.27600097656249 L -4.998000144958496 -85.99999999999999 L -4.999922752380371 -86.01599884033202 L -5.085000038146973 -86.72399902343749 L -5.341000080108643 -87.40599822998045 L -5.752999782562256 -88.00599670410155 L -6.294000148773193 -88.48899841308592 L -6.745999813079834 -88.72804260253905 L -6.934999942779541 -88.82800292968749 L -7.638000011444092 -89.00299835205077 L -8.362000465393066 -89.00299835205077 L -9.0649995803833 -88.82800292968749 L -9.253999710083008 -88.72804260253905 L -9.706000328063965 -88.48899841308592 L -10.246999740600586 -88.00599670410155 L -10.659000396728516 -87.40599822998045 L -10.914999961853027 -86.72399902343749 L -11.001055717468262 -86.01599884033202 L -11.003000259399414 -85.99999999999999 L -10.914999961853027 -85.27600097656249 L -10.659000396728516 -84.59400177001952 L -10.246999740600586 -83.99400329589842 L -9.706000328063965 -83.51100158691405 L -9.253999710083008 -83.27195739746092 L -9.0649995803833 -83.17199707031249 L -8.362000465393066 -82.9980010986328 L -7.638000011444092 -82.9980010986328 L -6.934999942779541 -83.17199707031249 L -6.294000148773193 -83.51100158691405 L -5.752999782562256 -83.99400329589842 L -5.341000080108643 -84.59400177001952 L -5.283944129943848 -84.74600219726561 L -5.085000038146973 -85.27600097656249 M -62.50299835205078 -88.50299835205077 L -62.50299835205078 -83.4980010986328 L -61.99800109863281 -83.4980010986328 L -11.498000144958496 -83.4980010986328 L -11.498000144958496 -88.50299835205077 L -61.99800109863281 -88.50299835205077 L -62.50299835205078 -88.50299835205077 M -62.49800109863281 -28.503000259399407 L -68.00299835205078 -28.503000259399407 L -69.00299835205078 -28.503000259399407 L -88.50299835205078 -28.503000259399407 L -88.50299835205078 -20.497999191284176 L -69.00299835205078 -20.497999191284176 L -68.00299835205078 -20.497999191284176 L -62.49800109863281 -20.497999191284176 L -62.49800109863281 -28.503000259399407 z" fill="none" stroke="rgb(0,0,0)" stroke-width="0.01mm" />
</svg>