<?xml version="1.0" standalone="no"?>
<!DOCTYPE svg PUBLIC "-//W3C//DTD SVG 1.1//EN"
  "http://www.w3.org/Graphics/SVG/1.1/DTD/svg11.dtd">
<svg width="127.5mm" height="101.49999999999997mm" viewBox="-101 -100.99999999999997 127.5 101.49999999999997" xmlns="http://www.w3.org/2000/svg" version="1.1">
	<title>svgOutput</title>
	<desc>made with tinkercad</desc>
<path d="M -73.4990005493164 -79.50099945068358 L -73.49500274658203 -79.50299835205077 L -73.49099731445312 -79.50099945068358 L -73.48899841308594 -79.49900054931639 L -73.48699951171875 -79.49500274658202 L -73.48899841308594 -79.49099731445311 L -73.49099731445312 -79.48899841308592 L -73.49500274658203 -79.48699951171874 L -73.4990005493164 -79.48899841308592 L -73.5009994506836 -79.49099731445311 L -73.50299835205078 -79.49500274658202 L -73.5009994506836 -79.49900054931639 L -73.4990005493164 -79.50099945068358 M -70.49956512451172 -79.48699951171874 L -70.49800109863281 -79.49999999999999 L -70.58499908447266 -80.22399902343749 L -70.84100341796875 -80.90599822998045 L -71.25299835205078 -81.50599670410155 L -71.71671295166016 -81.9199981689453 L -71.79399871826172 -81.98899841308592 L -72.43499755859375 -82.32800292968749 L -73.13800048828125 -82.50299835205077 L -73.86199951171875 -82.50299835205077 L -74.56500244140625 -82.32800292968749 L -75.20600128173828 -81.98899841308592 L -75.28328704833984 -81.9199981689453 L -75.74700164794922 -81.50599670410155 L -76.15899658203125 -80.90599822998045 L -76.41500091552734 -80.22399902343749 L -76.50299835205078 -79.49999999999999 L -76.41500091552734 -78.77600097656249 L -76.15899658203125 -78.09400177001952 L -75.74700164794922 -77.49400329589842 L -75.20600128173828 -77.01100158691405 L -74.56500244140625 -76.67199707031249 L -73.86199951171875 -76.4980010986328 L -73.72799682617188 -76.4980010986328 L -73.50299835205078 -76.4980010986328 L -73.13800048828125 -76.4980010986328 L -72.43499755859375 -76.67199707031249 L -71.79399871826172 -77.01100158691405 L -71.25299835205078 -77.49400329589842 L -70.84100341796875 -78.09400177001952 L -70.58499908447266 -78.77600097656249 L -70.49956512451172 -79.48699951171874 M -15.49899959564209 -79.50099945068358 L -15.494999885559082 -79.50299835205077 L -15.491000175476074 -79.50099945068358 L -15.48900032043457 -79.49900054931639 L -15.487000465393066 -79.49500274658202 L -15.48900032043457 -79.49099731445311 L -15.491000175476074 -79.48899841308592 L -15.494999885559082 -79.48699951171874 L -15.49899959564209 -79.48899841308592 L -15.50100040435791 -79.49099731445311 L -15.503000259399414 -79.49500274658202 L -15.50100040435791 -79.49900054931639 L -15.49899959564209 -79.50099945068358 M -12.49956226348877 -79.48699951171874 L -12.498000144958496 -79.49999999999999 L -12.585000038146973 -80.22399902343749 L -12.840999603271484 -80.90599822998045 L -13.253000259399414 -81.50599670410155 L -13.716713905334473 -81.9199981689453 L -13.793999671936035 -81.98899841308592 L -14.4350004196167 -82.32800292968749 L -15.137999534606934 -82.50299835205077 L -15.862000465393066 -82.50299835205077 L -16.565000534057617 -82.32800292968749 L -17.20599937438965 -81.98899841308592 L -17.28328514099121 -81.9199981689453 L -17.746999740600586 -81.50599670410155 L -18.159000396728516 -80.90599822998045 L -18.415000915527344 -80.22399902343749 L -18.503000259399414 -79.49999999999999 L -18.415000915527344 -78.77600097656249 L -18.159000396728516 -78.09400177001952 L -17.746999740600586 -77.49400329589842 L -17.20599937438965 -77.01100158691405 L -16.565000534057617 -76.67199707031249 L -16.384000778198242 -76.62719726562499 L -15.862000465393066 -76.4980010986328 L -15.503000259399414 -76.4980010986328 L -15.137999534606934 -76.4980010986328 L -14.4350004196167 -76.67199707031249 L -13.793999671936035 -77.01100158691405 L -13.253000259399414 -77.49400329589842 L -12.840999603271484 -78.09400177001952 L -12.585000038146973 -78.77600097656249 L -12.49956226348877 -79.48699951171874 M 25.5 -99.99999999999997 L 25.5 -76.4980010986328 L 25.5 -26.997999191284173 L 25.5 -11.503000259399412 L 25.5 -3.497999906539916 L 25.5 -0.4999999999999998 L -76.50299835205078 -0.4999999999999998 L -100 -0.4999999999999998 L -100 -3.497999906539916 L -100 -11.503000259399412 L -100 -99.99999999999997 L -76.50299835205078 -99.99999999999997 L -70.49800109863281 -99.99999999999997 L -18.503000259399414 -99.99999999999997 L -12.498000144958496 -99.99999999999997 L 25.5 -99.99999999999997 M -73.4990005493164 -30.000999450683587 L -73.49500274658203 -30.003000259399407 L -73.49099731445312 -30.000999450683587 L -73.48899841308594 -29.9990005493164 L -73.48699951171875 -29.99500083923339 L -73.48899841308594 -29.99099922180175 L -73.49099731445312 -29.989000320434563 L -73.49500274658203 -29.986999511718743 L -73.4990005493164 -29.989000320434563 L -73.5009994506836 -29.99099922180175 L -73.50299835205078 -29.99500083923339 L -73.5009994506836 -29.9990005493164 L -73.4990005493164 -30.000999450683587 M -70.49956512451172 -29.986999511718743 L -70.49800109863281 -29.999999999999993 L -70.58499908447266 -30.724000930786126 L -70.84100341796875 -31.406000137329094 L -71.25299835205078 -32.00600051879882 L -71.79399871826172 -32.48899841308593 L -72.32154846191406 -32.76800155639648 L -72.43499755859375 -32.82799911499023 L -73.13800048828125 -33.002998352050774 L -73.86199951171875 -33.002998352050774 L -74.56500244140625 -32.82799911499023 L -74.67845153808594 -32.76800155639648 L -75.20600128173828 -32.48899841308593 L -75.74700164794922 -32.00600051879882 L -76.15899658203125 -31.406000137329094 L -76.41500091552734 -30.724000930786126 L -76.50299835205078 -29.999999999999993 L -76.41500091552734 -29.27599906921386 L -76.15899658203125 -28.59399986267089 L -75.74700164794922 -27.993999481201165 L -75.20600128173828 -27.510999679565423 L -74.56500244140625 -27.17200088500976 L -73.86199951171875 -26.997999191284173 L -73.72799682617188 -26.997999191284173 L -73.50299835205078 -26.997999191284173 L -73.13800048828125 -26.997999191284173 L -72.43499755859375 -27.17200088500976 L -71.79399871826172 -27.510999679565423 L -71.25299835205078 -27.993999481201165 L -70.84100341796875 -28.59399986267089 L -70.58499908447266 -29.27599906921386 L -70.49956512451172 -29.986999511718743 M -15.49899959564209 -30.000999450683587 L -15.494999885559082 -30.003000259399407 L -15.491000175476074 -30.000999450683587 L -15.48900032043457 -29.9990005493164 L -15.487000465393066 -29.99500083923339 L -15.48900032043457 -29.99099922180175 L -15.491000175476074 -29.989000320434563 L -15.494999885559082 -29.986999511718743 L -15.49899959564209 -29.989000320434563 L -15.50100040435791 -29.99099922180175 L -15.503000259399414 -29.99500083923339 L -15.50100040435791 -29.9990005493164 L -15.49899959564209 -30.000999450683587 M -12.49956226348877 -29.986999511718743 L -12.498000144958496 -29.999999999999993 L -12.585000038146973 -30.724000930786126 L -12.840999603271484 -31.406000137329094 L -13.253000259399414 -32.00600051879882 L -13.793999671936035 -32.48899841308593 L -14.321548461914062 -32.76800155639648 L -14.4350004196167 -32.82799911499023 L -15.137999534606934 -33.002998352050774 L -15.862000465393066 -33.002998352050774 L -16.565000534057617 -32.82799911499023 L -16.678451538085938 -32.76800155639648 L -17.20599937438965 -32.48899841308593 L -17.746999740600586 -32.00600051879882 L -18.159000396728516 -31.406000137329094 L -18.415000915527344 -30.724000930786126 L -18.503000259399414 -29.999999999999993 L -18.415000915527344 -29.27599906921386 L -18.159000396728516 -28.59399986267089 L -17.746999740600586 -27.993999481201165 L -17.20599937438965 -27.510999679565423 L -16.565000534057617 -27.17200088500976 L -16.384000778198242 -27.12720108032226 L -15.862000465393066 -26.997999191284173 L -15.503000259399414 -26.997999191284173 L -15.137999534606934 -26.997999191284173 L -14.4350004196167 -27.17200088500976 L -13.793999671936035 -27.510999679565423 L -13.253000259399414 -27.993999481201165 L -12.840999603271484 -28.59399986267089 L -12.585000038146973 -29.27599906921386 L -12.49956226348877 -29.986999511718743 M -70.00299835205078 -82.00299835205077 L -70.00299835205078 -76.9980010986328 L -18.99799919128418 -76.9980010986328 L -18.99799919128418 -82.00299835205077 L -70.00299835205078 -82.00299835205077 M -69.99800109863281 -11.503000259399412 L -76.50299835205078 -11.503000259399412 L -96.00299835205078 -11.503000259399412 L -96.00299835205078 -3.497999906539916 L -76.50299835205078 -3.497999906539916 L -69.99800109863281 -3.497999906539916 L -69.99800109863281 -11.503000259399412 z" fill="none" stroke="rgb(255,0,0)" stroke-width="0.1mm" />
</svg>