<?xml version="1.0" standalone="no"?>
<!DOCTYPE svg PUBLIC "-//W3C//DTD SVG 1.1//EN"
  "http://www.w3.org/Graphics/SVG/1.1/DTD/svg11.dtd">
<svg width="127.5mm" height="101.49999999999997mm" viewBox="-101 -100.99999999999997 127.5 101.49999999999997" xmlns="http://www.w3.org/2000/svg" version="1.1">
	<title>svgOutput</title>
	<desc>made with tinkercad</desc>
<path d="M -73.5 -79.49999999999999 L -73.5009994506836 -79.49900054931639 L -73.50299835205078 -79.49500274658202 L -73.5009994506836 -79.49099731445311 L -73.5 -79.48999786376952 L -73.5 -79.48950195312499 L -73.5 -79.48799896240233 L -73.5 -76.9980010986328 L -73.48999786376953 -76.9980010986328 L -73.48999786376953 -79.48799896240233 L -73.48999786376953 -79.48899841308592 L -73.48999786376953 -79.48999786376952 L -73.48899841308594 -79.49099731445311 L -73.48799896240234 -79.4929962158203 L -73.48799896240234 -79.4970016479492 L -73.48899841308594 -79.49900054931639 L -73.48999786376953 -79.49999999999999 L -73.48899841308594 -79.49999999999999 L -73.48799896240234 -79.49999999999999 L -70.99800109863281 -79.49999999999999 L -70.99800109863281 -79.51000213623045 L -73.48799896240234 -79.51000213623045 L -73.48999786376953 -79.51000213623045 L -73.48999786376953 -82.00299835205077 L -73.5 -82.00299835205077 L -73.5 -79.51000213623045 L -73.50299835205078 -79.51000213623045 L -76.00299835205078 -79.51000213623045 L -76.00299835205078 -79.49999999999999 L -73.50299835205078 -79.49999999999999 L -73.50050354003906 -79.49999999999999 L -73.5 -79.49999999999999 M -15.5 -79.49999999999999 L -15.50100040435791 -79.49900054931639 L -15.503000259399414 -79.49500274658202 L -15.50100040435791 -79.49099731445311 L -15.5 -79.48999786376952 L -15.5 -79.48950195312499 L -15.5 -79.48799896240233 L -15.5 -76.9980010986328 L -15.489999771118164 -76.9980010986328 L -15.489999771118164 -79.48799896240233 L -15.489999771118164 -79.48899841308592 L -15.489999771118164 -79.48999786376952 L -15.48900032043457 -79.49099731445311 L -15.48799991607666 -79.4929962158203 L -15.48799991607666 -79.4970016479492 L -15.48900032043457 -79.49900054931639 L -15.489999771118164 -79.49999999999999 L -15.48900032043457 -79.49999999999999 L -15.48799991607666 -79.49999999999999 L -12.998000144958496 -79.49999999999999 L -12.998000144958496 -79.51000213623045 L -15.48799991607666 -79.51000213623045 L -15.489999771118164 -79.51000213623045 L -15.489999771118164 -82.00299835205077 L -15.5 -82.00299835205077 L -15.5 -79.51000213623045 L -15.503000259399414 -79.51000213623045 L -18.003000259399414 -79.51000213623045 L -18.003000259399414 -79.49999999999999 L -15.503000259399414 -79.49999999999999 L -15.500499725341797 -79.49999999999999 L -15.5 -79.49999999999999 M 25.5 -99.99999999999997 L 25.5 -79.48799896240233 L 25.5 -29.98800086975097 L 25.5 -0.4999999999999998 L -12.998000144958496 -0.4999999999999998 L -18.003000259399414 -0.4999999999999998 L -70.99800109863281 -0.4999999999999998 L -73.50299835205078 -0.4999999999999998 L -76.00299835205078 -0.4999999999999998 L -100 -0.4999999999999998 L -100 -3.497999906539916 L -100 -11.503000259399412 L -100 -76.9980010986328 L -100 -82.00299835205077 L -100 -99.99999999999997 L -73.50299835205078 -99.99999999999997 L -73.48799896240234 -99.99999999999997 L -18.003000259399414 -99.99999999999997 L -15.503000259399414 -99.99999999999997 L -15.48799991607666 -99.99999999999997 L -12.998000144958496 -99.99999999999997 L 25.5 -99.99999999999997 M -73.5 -29.999999999999993 L -73.5009994506836 -29.9990005493164 L -73.50299835205078 -29.99500083923339 L -73.5009994506836 -29.99099922180175 L -73.5 -29.989999771118157 L -73.5 -29.98950004577636 L -73.5 -29.98800086975097 L -73.5 -27.497999191284173 L -73.48999786376953 -27.497999191284173 L -73.48999786376953 -29.98800086975097 L -73.48999786376953 -29.989000320434563 L -73.48999786376953 -29.989999771118157 L -73.48899841308594 -29.99099922180175 L -73.48799896240234 -29.99300003051757 L -73.48799896240234 -29.99699974060058 L -73.48899841308594 -29.9990005493164 L -73.48999786376953 -29.999999999999993 L -73.48899841308594 -29.999999999999993 L -73.48799896240234 -29.999999999999993 L -70.99800109863281 -29.999999999999993 L -70.99800109863281 -30.01000022888183 L -73.48799896240234 -30.01000022888183 L -73.48999786376953 -30.01000022888183 L -73.48999786376953 -32.50199890136718 L -73.5 -32.50199890136718 L -73.5 -30.01000022888183 L -73.50299835205078 -30.01000022888183 L -76.00299835205078 -30.01000022888183 L -76.00299835205078 -29.999999999999993 L -73.50299835205078 -29.999999999999993 L -73.50050354003906 -29.999999999999993 L -73.5 -29.999999999999993 M -15.5 -29.999999999999993 L -15.50100040435791 -29.9990005493164 L -15.503000259399414 -29.99500083923339 L -15.50100040435791 -29.99099922180175 L -15.5 -29.989999771118157 L -15.5 -29.98950004577636 L -15.5 -29.98800086975097 L -15.5 -27.497999191284173 L -15.489999771118164 -27.497999191284173 L -15.489999771118164 -29.98800086975097 L -15.489999771118164 -29.989000320434563 L -15.489999771118164 -29.989999771118157 L -15.48900032043457 -29.99099922180175 L -15.48799991607666 -29.99300003051757 L -15.48799991607666 -29.99699974060058 L -15.48900032043457 -29.9990005493164 L -15.489999771118164 -29.999999999999993 L -15.48900032043457 -29.999999999999993 L -15.48799991607666 -29.999999999999993 L -12.998000144958496 -29.999999999999993 L -12.998000144958496 -30.01000022888183 L -15.48799991607666 -30.01000022888183 L -15.489999771118164 -30.01000022888183 L -15.489999771118164 -32.50199890136718 L -15.5 -32.50199890136718 L -15.5 -30.01000022888183 L -15.503000259399414 -30.01000022888183 L -18.003000259399414 -30.01000022888183 L -18.003000259399414 -29.999999999999993 L -15.503000259399414 -29.999999999999993 L -15.500499725341797 -29.999999999999993 L -15.5 -29.999999999999993 M -76.00299835205078 -3.497999906539916 L -73.50299835205078 -3.497999906539916 L -70.99800109863281 -3.497999906539916 L -69.99800109863281 -3.497999906539916 L -69.99800109863281 -11.503000259399412 L -70.99800109863281 -11.503000259399412 L -73.50299835205078 -11.503000259399412 L -76.00299835205078 -11.503000259399412 L -96.00299835205078 -11.503000259399412 L -96.00299835205078 -3.497999906539916 L -76.00299835205078 -3.497999906539916 M -70.00299835205078 -82.00299835205077 L -70.00299835205078 -79.48799896240233 L -70.00299835205078 -76.9980010986328 L -18.99799919128418 -76.9980010986328 L -18.99799919128418 -79.48799896240233 L -18.99799919128418 -82.00299835205077 L -70.00299835205078 -82.00299835205077 z" fill="none" stroke="rgb(0,0,0)" stroke-width="0.01mm" />
</svg>