<?xml version="1.0" encoding="UTF-8" standalone="no"?>
<!-- Created with Inkscape (http://www.inkscape.org/) -->

<svg
   width="210mm"
   height="297mm"
   viewBox="0 0 210 297"
   version="1.1"
   id="svg5"
   inkscape:version="1.1.1 (3bf5ae0d25, 2021-09-20)"
   sodipodi:docname="inkys.template.svg"
   xmlns:inkscape="http://www.inkscape.org/namespaces/inkscape"
   xmlns:sodipodi="http://sodipodi.sourceforge.net/DTD/sodipodi-0.dtd"
   xmlns="http://www.w3.org/2000/svg"
   xmlns:svg="http://www.w3.org/2000/svg">
  <sodipodi:namedview
     id="namedview7"
     pagecolor="#ffffff"
     bordercolor="#666666"
     borderopacity="1.0"
     inkscape:pageshadow="2"
     inkscape:pageopacity="0.0"
     inkscape:pagecheckerboard="0"
     inkscape:document-units="mm"
     showgrid="false"
     inkscape:zoom="0.5499273"
     inkscape:cx="55.461876"
     inkscape:cy="526.43322"
     inkscape:window-width="1284"
     inkscape:window-height="1081"
     inkscape:window-x="1294"
     inkscape:window-y="102"
     inkscape:window-maximized="0"
     inkscape:current-layer="layer1" />
  <defs
     id="defs2" />
  <g
     inkscape:label="Layer 1"
     inkscape:groupmode="layer"
     id="layer1">
    <path
       d="m 92.235786,66.077991 0.004,-0.002 0.004,0.002 0.002,0.002 0.002,0.004 -0.002,0.004 -0.002,0.002 -0.004,0.002 -0.004,-0.002 -0.002,-0.002 -0.002,-0.004 0.002,-0.004 0.002,-0.002 m 2.999427,0.014 0.002,-0.013 -0.0437,-0.364 -0.0433,-0.36 -0.256,-0.682 -0.411997,-0.6 -0.541,-0.483 -0.641,-0.339 -0.703,-0.175 h -0.724 l -0.703,0.175 -0.641,0.339 -0.541,0.483 -0.412,0.6 -0.255997,0.682 -0.0438,0.36 -0.0442,0.364 0.088,0.724 0.255997,0.682 0.412,0.6 0.541,0.482997 0.641,0.339 0.703,0.174 h 0.359 0.365 l 0.703,-0.174 0.641,-0.339 0.541,-0.482997 0.411997,-0.6 0.256,-0.682 0.0854,-0.711 m -2.999427,-49.513973 0.004,-0.002 0.004,0.002 0.002,0.002 0.002,0.004 -0.002,0.004 -0.002,0.002 -0.004,0.002 -0.004,-0.002 -0.002,-0.002 -0.002,-0.004 0.002,-0.004 0.002,-0.002 m 2.999427,0.014 0.002,-0.013 -0.002,-0.016 -0.0851,-0.708 -0.256,-0.681997 -0.411997,-0.59999 -0.541,-0.48301 -0.641,-0.339 -0.703,-0.175 h -0.724 l -0.703,0.175 -0.641,0.339 -0.541,0.48301 -0.412,0.59999 -0.255997,0.681997 -0.0861,0.708 -0.002,0.016 0.088,0.724 0.255997,0.682 0.412,0.6 0.541,0.483 0.641,0.33901 0.703,0.17399 h 0.359 0.365 l 0.703,-0.17399 0.641,-0.33901 0.541,-0.483 0.411997,-0.6 0.256,-0.682 0.0854,-0.711 m 3.49957,-8.5129937 V 69.080988 85.078979 h -9.503004 -56.99996 -1 H 7.7354343 V 82.080982 74.075985 8.0790243 h 23.4969847 1 5.004987 1 50.994973 6.005004 3.498 m -63.498974,57.9989667 0.004,-0.002 0.004,0.002 0.002,0.002 0.002,0.004 -0.002,0.004 -0.002,0.002 -0.004,0.002 -0.004,-0.002 -0.002,-0.002 -0.002,-0.004 0.002,-0.004 0.002,-0.002 m 2.999437,0.014 0.002,-0.013 -0.0437,-0.364 -0.0433,-0.36 -0.256,-0.682 -0.412,-0.6 -0.541,-0.483 -0.640997,-0.339 -0.703,-0.175 h -0.724 l -0.703,0.175 -0.641,0.339 -0.541,0.483 -0.41199,0.6 -0.25601,0.682 -0.0437,0.36 -0.0442,0.364 0.088,0.724 0.25601,0.682 0.41199,0.6 0.541,0.482997 0.641,0.339 0.703,0.174 h 0.359 0.365 l 0.703,-0.174 0.640997,-0.339 0.541,-0.482997 0.412,-0.6 0.256,-0.682 0.0854,-0.711 m -3.999437,-49.513973 0.004,-0.002 0.004,0.002 0.002,0.002 0.002,0.004 -0.002,0.004 -0.002,0.002 -0.004,0.002 -0.004,-0.002 -0.002,-0.002 -0.002,-0.004 0.002,-0.004 0.002,-0.002 m 2.999437,0.014 0.002,-0.013 -0.002,-0.016 -0.0851,-0.708 -0.256,-0.681997 -0.411997,-0.59999 -0.541,-0.48301 -0.641,-0.339 -0.703,-0.175 h -0.724 l -0.703,0.175 -0.641,0.339 -0.297,0.26516 -0.244,0.21785 -0.41199,0.59999 -0.25601,0.681997 -0.0861,0.708 -0.002,0.016 0.088,0.724 0.25601,0.682 0.41199,0.6 0.244,0.21784 0.297,0.26516 0.641,0.33901 0.703,0.17399 h 0.359 0.365 l 0.703,-0.17399 0.641,-0.33901 0.541,-0.483 0.411997,-0.6 0.256,-0.682 0.0854,-0.711 m 0.49657,-2.515997 v 5.004997 h 0.50499 50.499983 v -5.004997 h -50.499983 -0.50499 m 0.005,59.999964 h -5.504997 -1 -19.499988 v 8.004997 h 19.499988 1 5.504997 z"
       fill="none"
       stroke="#ff0000"
       stroke-width="0.1mm"
       id="path13" />
    <path
       d="m 195.16269,66.196501 0.004,-0.002 0.004,0.002 0.002,0.002 0.002,0.004 -0.002,0.004 -0.002,0.002 -0.004,0.002 -0.004,-0.002 -0.002,-0.002 -0.002,-0.004 0.002,-0.004 0.002,-0.002 m 2.99942,0.014 0.002,-0.013 -0.0437,-0.364 -0.0433,-0.36 -0.256,-0.682 -0.41199,-0.6 -0.541,-0.483 -0.641,-0.339 -0.703,-0.175 h -0.724 l -0.703,0.175 -0.641,0.339 -0.541,0.483 -0.412,0.6 -0.256,0.682 -0.0438,0.36 -0.0442,0.364 0.088,0.724 0.256,0.682 0.412,0.6 0.541,0.482997 0.641,0.339 0.703,0.174 h 0.359 0.365 l 0.703,-0.174 0.641,-0.339 0.541,-0.482997 0.41199,-0.6 0.256,-0.682 0.0854,-0.711 m -2.99942,-49.513943 0.004,-0.002 0.004,0.002 0.002,0.002 0.002,0.004 -0.002,0.004 -0.002,0.002 -0.004,0.002 -0.004,-0.002 -0.002,-0.002 -0.002,-0.004 0.002,-0.004 0.002,-0.002 m 2.99942,0.014 0.002,-0.013 -0.002,-0.016 -0.0851,-0.708 -0.256,-0.681997 -0.41199,-0.59999 -0.541,-0.48301 -0.641,-0.339 -0.703,-0.175 h -0.724 l -0.703,0.175 -0.641,0.339 -0.541,0.48301 -0.412,0.59999 -0.256,0.681997 -0.0861,0.708 -0.002,0.016 0.088,0.724 0.256,0.682 0.412,0.6 0.541,0.483 0.641,0.33901 0.703,0.17399 h 0.359 0.365 l 0.703,-0.17399 0.641,-0.33901 0.541,-0.483 0.41199,-0.6 0.256,-0.682 0.0854,-0.711 m 3.49957,-8.5129937 V 69.199498 85.197479 h -9.503 -56.99996 -1 -23.49699 V 82.199482 74.194485 8.1975643 h 23.49699 1 5.00499 1 50.99497 6.005 3.498 m -63.49897,57.9989367 0.004,-0.002 0.004,0.002 0.002,0.002 0.002,0.004 -0.002,0.004 -0.002,0.002 -0.004,0.002 -0.004,-0.002 -0.002,-0.002 -0.002,-0.004 0.002,-0.004 0.002,-0.002 m 2.99944,0.014 0.002,-0.013 -0.0437,-0.364 -0.0433,-0.36 -0.256,-0.682 -0.412,-0.6 -0.541,-0.483 -0.641,-0.339 -0.703,-0.175 h -0.724 l -0.703,0.175 -0.641,0.339 -0.541,0.483 -0.41199,0.6 -0.25601,0.682 -0.0437,0.36 -0.0442,0.364 0.088,0.724 0.25601,0.682 0.41199,0.6 0.541,0.482997 0.641,0.339 0.703,0.174 h 0.359 0.365 l 0.703,-0.174 0.641,-0.339 0.541,-0.482997 0.412,-0.6 0.256,-0.682 0.0854,-0.711 m -3.99944,-49.513943 0.004,-0.002 0.004,0.002 0.002,0.002 0.002,0.004 -0.002,0.004 -0.002,0.002 -0.004,0.002 -0.004,-0.002 -0.002,-0.002 -0.002,-0.004 0.002,-0.004 0.002,-0.002 m 2.99944,0.014 0.002,-0.013 -0.002,-0.016 -0.0851,-0.708 -0.256,-0.681997 -0.412,-0.59999 -0.541,-0.48301 -0.641,-0.339 -0.703,-0.175 h -0.724 l -0.703,0.175 -0.641,0.339 -0.297,0.26516 -0.244,0.21785 -0.41199,0.59999 -0.25601,0.681997 -0.0861,0.708 -0.002,0.016 0.088,0.724 0.25601,0.682 0.41199,0.6 0.244,0.21784 0.297,0.26516 0.641,0.33901 0.703,0.17399 h 0.359 0.365 l 0.703,-0.17399 0.641,-0.33901 0.541,-0.483 0.412,-0.6 0.256,-0.682 0.0854,-0.711 m 0.49657,-2.515997 v 5.004997 h 0.50499 50.49998 v -5.004997 h -50.49998 -0.50499 m 0.005,59.999924 h -5.505 -1 -19.49999 v 8.004997 h 19.49999 1 5.505 z"
       fill="none"
       stroke="#ff0000"
       stroke-width="0.1mm"
       id="path13-2" />
    <path
       d="m 134.87755,91.705716 v 12.996994 h -3.502 v 7.005 h 3.502 v 13.995 h -3.502 v 7.005 h 3.502 v 13.995 h -3.502 v 7.005 h 3.502 v 13.995 h -3.502 v 7.005 h 3.502 v 16.498 h -3.502 H 96.379553 91.374556 38.379573 33.374575 9.3775743 v -2.998 -8.505 -64.495 -5.005 -18.496994 h 81.9969817 5.004997 34.995997 3.502 M 93.877556,112.70571 v 2.502 h 0.01 v -2.502 h 2.491997 v -0.01 h -2.491997 v -2.49299 h -0.01 v 2.49299 h -2.503 v 0.01 h 2.503 m 0,49 v 2.502 h 0.01 v -2.502 h 2.491997 v -0.01 h -2.491997 v -2.492 h -0.01 v 2.492 h -2.503 v 0.01 h 2.503 m -57.999982,-49.01 h -2.502999 v 0.01 h 2.502999 v 2.502 h 0.01 v -2.502 h 2.491997 v -0.01 h -2.491997 v -2.493 h -0.01 v 2.493 m 0,49 h -2.502999 v 0.01 h 2.502999 v 2.502 h 0.01 v -2.502 h 2.491997 v -0.01 h -2.491997 v -2.492 h -0.01 v 2.492 m 3.497001,-51.493 v 5.005 h 51.004981 v -5.005 H 39.374575 m -0.995002,78.005 h 1 v -8.505 h -1 -5.004998 -20 v 8.505 h 20 z"
       fill="none"
       stroke="#000000"
       stroke-width="0.01mm"
       id="path48" />
    <path
       d="m 134.84558,192.36597 v 12.99699 h -3.502 v 7.005 h 3.502 v 13.995 h -3.502 v 7.005 h 3.502 v 13.995 h -3.502 v 7.005 h 3.502 v 13.995 h -3.502 v 7.005 h 3.502 v 16.498 h -3.502 H 96.347573 91.342587 38.347627 33.34263 9.3456443 v -2.998 -8.505 -64.495 -5.005 -18.49699 h 81.9969427 5.004986 34.996007 3.502 m -40.999993,20.99999 v 2.502 h 0.01 v -2.502 h 2.491986 v -0.01 h -2.491986 v -2.49299 h -0.01 v 2.49299 h -2.503 v 0.01 h 2.503 m 0,49 v 2.502 h 0.01 v -2.502 h 2.491986 v -0.01 h -2.491986 v -2.492 h -0.01 v 2.492 h -2.503 v 0.01 h 2.503 m -57.999957,-49.01 h -2.503 v 0.01 h 2.503 v 2.502 h 0.01 v -2.502 h 2.491997 v -0.01 H 35.85563 v -2.493 h -0.01 v 2.493 m 0,49 h -2.503 v 0.01 h 2.503 v 2.502 h 0.01 v -2.502 h 2.491997 v -0.01 H 35.85563 v -2.492 h -0.01 v 2.492 m 3.496997,-51.493 v 5.005 H 90.34759 v -5.005 H 39.342627 m -0.995,78.005 h 1 v -8.505 h -1 -5.004997 -19.999988 v 8.505 H 33.34263 Z"
       fill="none"
       stroke="#000000"
       stroke-width="0.01mm"
       id="path48-4" />
  </g>
</svg>
